<svg aria-hidden="true" style="position: absolute; width: 0; height: 0; overflow: hidden;" version="1.1" xmlns="http://www.w3.org/2000/svg" xmlns:xlink="http://www.w3.org/1999/xlink">
<defs>
<symbol id="icon-Vector" viewBox="0 0 23 18">
<path d="M19.003 0.574c0.389-0.372 0.906-0.578 1.443-0.574s1.051 0.218 1.434 0.596c0.383 0.378 0.605 0.891 0.619 1.43s-0.181 1.064-0.543 1.461l-11.013 13.847c-0.189 0.205-0.418 0.37-0.672 0.484s-0.528 0.176-0.807 0.181c-0.278 0.005-0.555-0.046-0.813-0.151s-0.493-0.261-0.689-0.459l-7.303-7.343c-0.203-0.191-0.367-0.42-0.48-0.676s-0.174-0.531-0.179-0.81 0.046-0.557 0.15-0.816c0.104-0.259 0.259-0.495 0.456-0.692s0.431-0.353 0.688-0.458 0.534-0.156 0.812-0.151c0.278 0.005 0.552 0.066 0.806 0.18s0.482 0.278 0.672 0.482l5.78 5.808 9.586-12.279c0.017-0.021 0.036-0.042 0.055-0.061h-0.003z"></path>
</symbol>
</defs>
</svg>
