<svg xmlns="http://www.w3.org/2000/svg" aria-hidden="true" style="position:absolute;width:0;height:0;overflow:hidden"><defs><symbol id="icon-Client-logo-1" viewBox="0 0 45 24"><path d="m16.286 3 3.003 2.861-5.575-.003V19.74h14.571v-5.308l3 2.858V2.999h-15zm11.868 11.097-8.516-8.113h8.516v8.113zM25.51 17.71h-9.49V8.373h.671v8.704h8.819v.632zm-7.597 4.602.354-.727h.291l-.513.963v.561h-.265v-.561l-.513-.963h.292l.354.727zm1.303-.727h.063l.575 1.523h-.276l-.123-.357h-.59l-.123.357h-.275l.573-1.523h.176zm-.279.958h.446l-.223-.646-.223.646zm1.841-.252-.033-.043c-.039-.052-.069-.101-.091-.15s-.032-.099-.032-.151c0-.079.016-.148.049-.205s.079-.101.139-.132a.452.452 0 0 1 .21-.047c.077 0 .144.016.2.047s.1.071.13.122a.334.334 0 0 1-.052.408.7.7 0 0 1-.107.093l-.106.077.302.356a.61.61 0 0 0 .066-.285h.218c0 .074-.007.144-.022.21a.698.698 0 0 1-.111.251l.223.263h-.292l-.089-.104a.592.592 0 0 1-.156.085.709.709 0 0 1-.236.04c-.101 0-.189-.019-.263-.055s-.131-.088-.172-.153a.416.416 0 0 1-.06-.223c0-.062.013-.116.039-.163s.061-.091.106-.132c.041-.037.088-.075.141-.112zm.125.153-.032.023c-.037.03-.065.059-.083.087s-.029.052-.035.075a.254.254 0 0 0 .02.182.222.222 0 0 0 .085.087.277.277 0 0 0 .137.031.383.383 0 0 0 .168-.039.455.455 0 0 0 .078-.048l-.339-.399zm.06-.278-.017-.022c-.028-.036-.05-.071-.066-.104a.224.224 0 0 1-.006-.186.152.152 0 0 1 .145-.09c.051 0 .09.015.118.046s.042.064.042.1c0 .043-.009.078-.028.107s-.05.057-.094.086l-.093.063zm2.666.446h-.262c-.008.066-.024.122-.048.168s-.059.08-.106.104a.39.39 0 0 1-.181.036c-.061 0-.114-.012-.158-.037s-.08-.059-.109-.104c-.028-.045-.049-.098-.063-.16s-.02-.133-.02-.209v-.129c0-.081.007-.153.022-.216s.038-.117.068-.16c.03-.043.067-.076.112-.098s.097-.034.157-.034c.073 0 .133.013.178.038s.08.06.103.107a.48.48 0 0 1 .046.168h.262c-.01-.102-.039-.192-.086-.271s-.111-.141-.195-.185a.643.643 0 0 0-.308-.067c-.096 0-.182.017-.258.05s-.141.082-.196.145c-.054.063-.096.138-.126.227s-.043.188-.043.297v.127c0 .11.014.209.042.297s.07.164.123.227c.054.062.118.11.194.144s.16.05.254.05c.123 0 .227-.022.313-.067s.152-.106.2-.183a.617.617 0 0 0 .084-.267zm1.453-.224v-.084c0-.115-.015-.218-.046-.309s-.073-.169-.129-.233c-.056-.065-.122-.114-.2-.148s-.163-.051-.257-.051c-.093 0-.179.017-.256.051s-.143.083-.2.148c-.056.064-.099.142-.13.233s-.046.194-.046.309v.084c0 .115.015.218.046.31s.075.169.132.233c.057.064.123.113.2.148s.163.05.256.05c.094 0 .18-.017.257-.05s.144-.083.199-.148c.056-.064.099-.142.129-.233s.045-.195.045-.31zm-.263-.086v.086c0 .085-.008.16-.025.226s-.04.121-.071.166a.308.308 0 0 1-.271.134c-.058 0-.109-.011-.155-.033s-.084-.057-.117-.101c-.032-.045-.056-.101-.073-.166s-.025-.141-.025-.226v-.086c0-.085.008-.16.025-.225s.041-.12.072-.164c.032-.045.071-.078.116-.1s.097-.035.155-.035.11.012.156.035c.046.022.085.056.116.1s.056.099.072.164c.017.065.025.14.025.225z"/></symbol><symbol id="icon-Client-logo-2" viewBox="0 0 45 24"><path d="M21.477 2.543h-.059a8.117 8.117 0 0 0-.27-.01h-.195a9.928 9.928 0 0 0-.555.013 12.108 12.108 0 0 0-4.507 1.15l-.185.089v9.489l.434-.147c.381-.131.786-.248 1.206-.357a14.718 14.718 0 0 1 3.469-.461v1.247a9.717 9.717 0 0 0-.456.013h-.036c-.901.049-1.795.187-2.669.41a13.577 13.577 0 0 0-3.18 1.239V3.048a12.759 12.759 0 0 1 3.336-1.357 12.776 12.776 0 0 1 3.144-.405h.183c.219.005.433.015.633.031a9.037 9.037 0 0 1 1.567.25v1.227a9.726 9.726 0 0 0-1.518-.229l-.031-.003a3.772 3.772 0 0 0-.31-.018zm2.16 1.255c.272.021.554.031.839.031a13.464 13.464 0 0 0 3.306-.424 13.616 13.616 0 0 0 3.179-1.24v11.953a12.765 12.765 0 0 1-3.337 1.357c-1.027.264-2.084.4-3.144.404a9.628 9.628 0 0 1-2.385-.281V3.567a9.631 9.631 0 0 0 1.543.231zm6.083.092-.434.146c-.399.134-.801.254-1.206.361a14.643 14.643 0 0 1-3.603.462c-.283 0-.543-.008-.795-.024l-.346-.023v9.762l.297.026c.275.024.559.036.846.036a11.51 11.51 0 0 0 2.837-.367 11.824 11.824 0 0 0 2.217-.797l.185-.089V3.891zM15.316 19.377a.63.63 0 0 0-.483-.195.723.723 0 0 0-.279.052.64.64 0 0 0-.357.361.71.71 0 0 0-.05.269v1.626a.759.759 0 0 0 .064.333.647.647 0 0 0 .163.218.574.574 0 0 0 .223.116.908.908 0 0 0 .243.034.592.592 0 0 0 .262-.057.709.709 0 0 0 .217-.15.701.701 0 0 0 .194-.477v-.182h-.425v.145a.376.376 0 0 1-.025.145.262.262 0 0 1-.062.092.262.262 0 0 1-.089.047.273.273 0 0 1-.089.015c-.038.004-.076-.001-.111-.017s-.065-.04-.088-.071a.379.379 0 0 1-.056-.218v-1.516a.512.512 0 0 1 .052-.243.215.215 0 0 1 .208-.098.227.227 0 0 1 .19.091.34.34 0 0 1 .07.218v.141h.421v-.166a.765.765 0 0 0-.194-.513zM17.841 19.358a.736.736 0 0 0-.962 0 .668.668 0 0 0-.165.228.757.757 0 0 0-.062.315v1.56a.742.742 0 0 0 .062.319.63.63 0 0 0 .165.218c.065.06.141.107.224.137a.713.713 0 0 0 .508 0 .666.666 0 0 0 .39-.355.747.747 0 0 0 .062-.319v-1.56a.713.713 0 0 0-.222-.543zm-.198 2.102a.285.285 0 0 1-.085.225.312.312 0 0 1-.4 0 .285.285 0 0 1-.085-.225V19.9a.285.285 0 0 1 .085-.225.312.312 0 0 1 .4 0 .285.285 0 0 1 .085.225v1.56zM21.157 22.157v-2.952h-.409l-.537 1.563h-.008l-.541-1.563h-.404v2.952h.422v-1.796h.008l.413 1.27h.21l.416-1.27h.008v1.796h.422zM23.553 19.412a.583.583 0 0 0-.239-.161.935.935 0 0 0-.306-.046h-.627v2.952h.421v-1.153h.217a.765.765 0 0 0 .379-.081.611.611 0 0 0 .231-.226.703.703 0 0 0 .096-.257c.017-.111.024-.223.023-.336a1.708 1.708 0 0 0-.041-.422.62.62 0 0 0-.155-.271zm-.216.9a.377.377 0 0 1-.039.154.241.241 0 0 1-.108.104.422.422 0 0 1-.198.037H22.8v-1.004h.217c.065-.003.13.01.19.037a.238.238 0 0 1 .099.109.427.427 0 0 1 .037.165v.196c0 .068.004.139 0 .203h-.004zM25.546 19.205h-.345l-.65 2.952h.421l.124-.634h.574l.124.634h.421l-.667-2.952zm-.388 1.915.207-1.07h.008l.206 1.07h-.421zM28.264 20.983h-.008l-.635-1.779h-.404v2.952h.421v-1.775h.009l.643 1.775h.396v-2.952h-.421v1.779zM30.835 19.205l-.338 1.174h-.009l-.338-1.174h-.446l.578 1.704v1.248h.421v-1.248l.578-1.704h-.446zM14.143 22.991h.203v.569h.138v-.569h.202v-.117h-.542v.117zM15.847 22.874l-.266.686h.146l.056-.156h.273l.059.156h.15l-.272-.686h-.146zm-.022.414.093-.254.093.254h-.186zM17.532 23.307h.158v.088a.268.268 0 0 1-.163.058.175.175 0 0 1-.146-.065.29.29 0 0 1-.051-.179c0-.153.066-.229.197-.229.035-.003.069.006.098.026s.049.05.057.083l.136-.026c-.029-.134-.126-.202-.291-.202a.348.348 0 0 0-.24.088.332.332 0 0 0-.098.264.37.37 0 0 0 .088.257c.034.035.074.061.119.079s.093.025.141.021a.414.414 0 0 0 .291-.109v-.27h-.297v.116zM19.253 22.874h-.139v.686h.48v-.117h-.341v-.569zM20.707 22.874h-.139v.686h.139v-.686zM22.13 23.332l-.281-.458h-.134v.686h.129v-.448l.275.448h.138v-.686h-.127v.458zM23.416 23.258h.342v-.117h-.342v-.15h.368v-.117h-.506v.686h.52v-.117h-.382v-.185zM26.534 23.144h-.27v-.27h-.138v.686h.138v-.3h.27v.3h.138v-.686h-.138v.27zM27.827 23.258h.343v-.117h-.343v-.15h.369v-.117h-.506v.686h.519v-.117h-.382v-.185zM29.581 23.258c.119-.019.18-.082.18-.191.003-.029-.001-.059-.013-.086s-.031-.05-.054-.067a.387.387 0 0 0-.201-.04h-.291v.685h.138v-.287h.027a.182.182 0 0 1 .086.015c.02.012.037.03.049.05l.15.218h.165l-.083-.134a.48.48 0 0 0-.152-.165zm-.138-.095h-.102v-.172h.108a.369.369 0 0 1 .14.016.09.09 0 0 1 .03.071.094.094 0 0 1-.037.068.39.39 0 0 1-.14.016zM30.904 23.258h.341v-.117h-.341v-.15h.369v-.117h-.507v.686h.52v-.117h-.382v-.185z"/></symbol><symbol id="icon-Client-logo-3" viewBox="0 0 45 24"><path d="M15.776 21.096a.059.059 0 0 1 .037.014l.095.089a.77.77 0 0 1-.266.169 1.065 1.065 0 0 1-.377.061 1.013 1.013 0 0 1-.355-.057.773.773 0 0 1-.267-.16.72.72 0 0 1-.173-.247.807.807 0 0 1-.06-.316.74.74 0 0 1 .248-.564.863.863 0 0 1 .284-.161 1.13 1.13 0 0 1 .366-.057 1 1 0 0 1 .34.052c.094.035.18.083.254.143l-.079.095a.055.055 0 0 1-.02.017.058.058 0 0 1-.032.007.08.08 0 0 1-.034-.01l-.043-.025-.059-.032a.76.76 0 0 0-.187-.056.829.829 0 0 0-.141-.01.805.805 0 0 0-.263.042.618.618 0 0 0-.206.119.563.563 0 0 0-.134.19.638.638 0 0 0-.049.251.643.643 0 0 0 .049.255.55.55 0 0 0 .327.306c.077.027.16.041.244.04a.986.986 0 0 0 .144-.008.567.567 0 0 0 .312-.131.07.07 0 0 1 .045-.016zM18.508 20.649a.745.745 0 0 1-.064.314c-.039.091-.099.174-.178.244s-.174.124-.28.16a1.177 1.177 0 0 1-.719 0 .835.835 0 0 1-.278-.161.718.718 0 0 1-.18-.247.81.81 0 0 1 0-.63.73.73 0 0 1 .18-.248.849.849 0 0 1 .278-.155c.231-.077.488-.077.719 0 .105.036.2.091.279.161a.717.717 0 0 1 .243.56zm-.248 0a.65.65 0 0 0-.045-.253.526.526 0 0 0-.327-.308.85.85 0 0 0-.523 0 .575.575 0 0 0-.2.119.516.516 0 0 0-.128.189.73.73 0 0 0 0 .505.516.516 0 0 0 .328.307.864.864 0 0 0 .523 0 .526.526 0 0 0 .327-.307.647.647 0 0 0 .045-.253zM20.373 20.914l.025.057.027-.057a.44.44 0 0 1 .031-.056l.605-.939c.012-.016.023-.026.034-.029a.167.167 0 0 1 .05-.005h.179v1.527h-.212v-1.171a.468.468 0 0 1 0-.053l-.608.952c-.008.014-.02.026-.036.035s-.034.013-.052.013h-.034c-.018 0-.037-.004-.052-.013s-.028-.021-.035-.035l-.626-.958v1.227h-.205v-1.524h.179a.167.167 0 0 1 .05.005.067.067 0 0 1 .033.029l.618.94a.37.37 0 0 1 .031.055zM22.648 20.838v.572h-.237v-1.525h.528c.1-.002.199.01.295.033a.59.59 0 0 1 .208.095.386.386 0 0 1 .118.15.44.44 0 0 1 .04.195.43.43 0 0 1-.172.348.615.615 0 0 1-.209.101 1.008 1.008 0 0 1-.285.035l-.286-.004zm0-.164h.286a.66.66 0 0 0 .183-.023.395.395 0 0 0 .133-.066.287.287 0 0 0 .108-.229c.003-.042-.005-.085-.024-.124s-.047-.075-.083-.104a.52.52 0 0 0-.318-.082h-.286v.629zM25.828 21.412h-.187a.085.085 0 0 1-.052-.014.114.114 0 0 1-.031-.035l-.161-.369h-.808l-.167.369a.075.075 0 0 1-.03.034.089.089 0 0 1-.053.015h-.187l.71-1.527h.246l.719 1.527zm-1.172-.567h.667l-.282-.622a.959.959 0 0 1-.053-.144l-.027.08c-.008.024-.018.046-.026.065l-.279.621zM26.85 19.892a.106.106 0 0 1 .035.027l1.035 1.151v-1.187h.212v1.527h-.118c-.017 0-.033-.003-.049-.009s-.027-.017-.038-.028l-1.034-1.15a.469.469 0 0 1 0 .053v1.136h-.212v-1.527h.125c.015 0 .029.002.043.007zM29.876 20.804v.606h-.237v-.606l-.654-.92h.212a.09.09 0 0 1 .051.013c.013.01.024.021.032.034l.409.593a.842.842 0 0 1 .073.136l.031-.066a.547.547 0 0 1 .04-.07l.403-.597a.134.134 0 0 1 .031-.032.075.075 0 0 1 .051-.015h.214l-.655.924zM20.256 17.322c.103.011.207.02.312.028 1.596-.61 2.947-1.609 3.882-2.871s1.415-2.732 1.379-4.226L24.07 8.75c.358 1.59.19 3.234-.483 4.748s-1.827 2.837-3.331 3.823z"/><path d="m19.628 17.252.047.008c1.607-.982 2.832-2.354 3.517-3.937s.798-3.306.325-4.945l-2.506-2.141c1.013 1.76 1.421 3.729 1.176 5.679s-1.133 3.8-2.56 5.336zM28.125 12.018c-.426 1.641-1.46 3.121-2.948 4.221-.435.323-.904.61-1.401.859 1.212-.304 2.326-.843 3.256-1.573s1.652-1.634 2.109-2.64l-1.016-.867z"/><path d="m27.726 11.776-1.447-1.236c-.028 1.409-.497 2.787-1.358 3.989s-2.084 2.185-3.541 2.847h.007c.325 0 .649-.017.971-.05 1.361-.475 2.564-1.23 3.5-2.198s1.578-2.12 1.867-3.352zM19.837 5.334l-1.726-1.477c-1.543.509-2.87 1.405-3.807 2.57s-1.441 2.544-1.446 3.957c.006 1.562.621 3.077 1.748 4.306s2.702 2.102 4.476 2.481c1.583-1.648 2.51-3.684 2.646-5.813s-.526-4.239-1.89-6.024zM31.714 11.549c-.006-1.853-.87-3.628-2.404-4.938s-3.611-2.049-5.78-2.054a9.32 9.32 0 0 0-2.93.466l10.568 9.029a6.046 6.046 0 0 0 .547-2.503z"/></symbol><symbol id="icon-Client-logo-4" viewBox="0 0 45 24"><path d="M10.319 9.222h-.001c-1.022 0-1.851.747-1.851 1.669v.001c0 .922.829 1.669 1.851 1.669h.001c1.022 0 1.851-.747 1.851-1.669v-.001c0-.922-.829-1.669-1.851-1.669zM23.983 8.688c-.003-1.28-.568-2.508-1.572-3.413s-2.365-1.415-3.785-1.418c-1.42.002-2.782.512-3.787 1.418s-1.57 2.133-1.573 3.414v7.06s10.716-1.076 10.717-7.059v-.001zM4.714 18.066c.003.891.396 1.745 1.095 2.375s1.645.985 2.633.988c.988-.003 1.934-.358 2.633-.987s1.092-1.483 1.095-2.374v-4.913s-7.456.749-7.456 4.912zm3.728.88c-.193 0-.382-.052-.542-.148s-.286-.234-.36-.395-.093-.338-.056-.509c.038-.171.131-.328.267-.451s.311-.207.5-.241.386-.016.564.05.331.179.438.324a.823.823 0 0 1 .165.489c.001.116-.024.231-.073.338s-.121.205-.211.287a1.012 1.012 0 0 1-.691.259v-.003zM15.261 17.364v1.828h-.377v-1.828h.377zm.728.781v.294h-.831v-.294h.831zm.088-.781v.295h-.919v-.295h.919zm1.72.871v.087c0 .139-.019.264-.057.374s-.091.205-.159.283c-.069.077-.151.136-.246.177s-.2.061-.315.061c-.115 0-.22-.02-.315-.061s-.177-.1-.246-.177c-.069-.078-.123-.172-.162-.283s-.057-.235-.057-.374v-.087c0-.14.019-.265.057-.374s.091-.205.159-.283c.07-.078.152-.137.246-.178s.2-.062.315-.062c.116 0 .221.021.315.062s.177.1.246.178c.069.078.123.172.161.283s.058.234.058.374zm-.38.087v-.089c0-.097-.009-.182-.026-.256s-.044-.136-.078-.186-.076-.088-.126-.113c-.049-.026-.106-.039-.169-.039s-.12.013-.169.039c-.049.025-.09.063-.124.113s-.059.112-.077.186a1.09 1.09 0 0 0-.026.256v.089c0 .096.009.182.026.256s.044.136.078.187a.343.343 0 0 0 .295.153.337.337 0 0 0 .293-.153c.034-.051.059-.113.077-.187s.026-.16.026-.256zm1.603.391c0-.033-.005-.062-.015-.088s-.027-.051-.053-.073c-.026-.023-.062-.045-.109-.067s-.108-.044-.182-.068c-.083-.027-.162-.057-.236-.09s-.139-.072-.196-.117c-.056-.045-.1-.098-.133-.157s-.048-.128-.048-.207c0-.076.017-.145.05-.207s.08-.116.141-.161c.06-.045.131-.08.213-.104s.174-.036.272-.036c.135 0 .252.024.353.073s.178.115.234.2a.514.514 0 0 1 .084.29h-.374c0-.054-.011-.1-.034-.141s-.055-.073-.1-.097a.36.36 0 0 0-.168-.035c-.065 0-.12.01-.163.03s-.076.046-.098.079a.192.192 0 0 0-.033.11c0 .031.008.059.023.084s.039.049.07.07.069.042.114.062c.045.019.098.038.157.056.1.03.187.064.262.102s.14.08.191.127c.051.047.09.1.116.159s.039.127.039.202a.434.434 0 0 1-.18.372c-.059.043-.128.077-.21.099a1.044 1.044 0 0 1-.539-.001.805.805 0 0 1-.24-.109.53.53 0 0 1-.235-.453h.378c0 .057.009.105.026.144s.042.071.074.095c.033.024.071.042.116.053s.095.016.148.016c.065 0 .119-.009.161-.028s.074-.044.094-.077a.199.199 0 0 0 .031-.11zm1.45-1.349v1.828h-.375v-1.828h.375zm.563 0v.295h-1.492v-.295h1.492zm1.441 1.534v.294h-.973v-.294h.973zm-.85-1.534v1.828h-.377v-1.828h.377zm.723.744v.286h-.846v-.286h.846zm.126-.744v.295h-.972v-.295h.972zm.221 0h.682c.14 0 .26.021.36.063s.179.104.234.186.082.183.082.303c0 .098-.017.182-.05.252s-.079.128-.139.175a.722.722 0 0 1-.21.111l-.119.063h-.593l-.003-.294h.441c.066 0 .121-.012.164-.035s.076-.056.098-.098a.297.297 0 0 0 .034-.146c0-.059-.011-.109-.033-.152s-.055-.075-.099-.098-.1-.034-.167-.034h-.305v1.533h-.377v-1.828zm1.022 1.828-.417-.815.398-.003.422.8v.018h-.403zm1.978-.652h-.466v-.294h.466c.072 0 .131-.012.176-.035s.078-.058.099-.1a.372.372 0 0 0 0-.296c-.021-.047-.054-.085-.099-.113s-.104-.043-.176-.043h-.335v1.533h-.377v-1.828h.712c.143 0 .266.026.368.078s.182.122.236.212c.054.09.082.194.082.31 0 .118-.027.22-.082.306s-.133.153-.236.2a.876.876 0 0 1-.368.07zm2.172.358v.294h-.973v-.294h.973zm-.85-1.534v1.828h-.377v-1.828h.377zm.723.744v.286h-.846v-.286h.846zm.125-.744v.295h-.972v-.295h.972zm1.064 0v1.828h-.375v-1.828h.375zm.562 0v.295h-1.492v-.295h1.492zm1.442 1.534v.294h-.973v-.294h.973zm-.85-1.534v1.828h-.377v-1.828h.377zm.723.744v.286h-.846v-.286h.846zm.126-.744v.295h-.972v-.295h.972zm.221 0h.682c.14 0 .26.021.36.063s.179.104.234.186a.54.54 0 0 1 .082.303c0 .098-.017.182-.05.252s-.079.128-.139.175a.722.722 0 0 1-.21.111l-.119.063h-.593l-.002-.294h.441c.066 0 .121-.012.164-.035s.076-.056.098-.098a.297.297 0 0 0 .034-.146c0-.059-.011-.109-.033-.152s-.055-.075-.099-.098a.36.36 0 0 0-.167-.034h-.305v1.533h-.377v-1.828zm1.022 1.828-.417-.815.398-.003.422.8v.018h-.403zm1.577-.479c0-.033-.005-.062-.015-.088s-.027-.051-.053-.073c-.026-.023-.062-.045-.109-.067s-.108-.044-.182-.068c-.083-.027-.162-.057-.236-.09s-.139-.072-.196-.117c-.056-.045-.1-.098-.133-.157s-.048-.128-.048-.207c0-.076.017-.145.05-.207s.08-.116.141-.161c.06-.045.131-.08.213-.104s.174-.036.272-.036c.135 0 .252.024.353.073s.178.115.234.2a.514.514 0 0 1 .084.29h-.374c0-.054-.011-.1-.034-.141s-.055-.073-.1-.097a.36.36 0 0 0-.168-.035c-.065 0-.12.01-.163.03s-.076.046-.098.079a.192.192 0 0 0-.033.11c0 .031.008.059.023.084s.039.049.07.07.069.042.114.062c.045.019.097.038.157.056.1.03.187.064.262.102s.14.08.191.127c.051.047.09.1.116.159s.039.127.039.202a.434.434 0 0 1-.18.372c-.059.043-.128.077-.21.099a1.044 1.044 0 0 1-.539-.001.805.805 0 0 1-.24-.109.53.53 0 0 1-.235-.453h.378c0 .057.009.105.026.144s.042.071.074.095c.033.024.071.042.115.053s.095.016.148.016c.065 0 .119-.009.161-.028s.074-.044.094-.077a.199.199 0 0 0 .031-.11z"/></symbol><symbol id="icon-Client-logo-5" viewBox="0 0 45 24"><path d="M11.482 19.017a.603.603 0 0 1 .158.415c.005.098-.014.196-.056.287s-.107.172-.189.237a1.145 1.145 0 0 1-.713.191H9.428v-2.628h1.228c.242-.014.483.047.68.175.079.06.142.135.183.221s.06.178.055.271a.566.566 0 0 1-.143.402.679.679 0 0 1-.374.205.734.734 0 0 1 .424.225zm-1.47-.397h.525a.54.54 0 0 0 .334-.087c.039-.032.07-.072.09-.117s.027-.092.023-.14c.004-.048-.004-.095-.024-.14s-.049-.084-.088-.117a.55.55 0 0 0-.344-.089h-.516v.689zm.91 1.008c.042-.033.075-.074.097-.12s.031-.097.027-.147c.003-.051-.007-.101-.029-.148s-.056-.088-.098-.122a.584.584 0 0 0-.357-.095h-.55v.723h.558a.598.598 0 0 0 .352-.091zM13.992 20.147l-.683-1.027h-.257v1.027h-.588v-2.628h1.112c.28-.018.558.062.774.223.155.143.249.331.264.53s-.049.397-.182.558a.929.929 0 0 1-.531.267l.727 1.05h-.639zm-.94-1.385h.481c.334 0 .501-.133.501-.398a.363.363 0 0 0-.123-.295.563.563 0 0 0-.378-.107h-.486l.006.8zM17.204 19.618h-1.171l-.207.529h-.616l1.075-2.599h.666l1.071 2.599h-.616l-.203-.529zm-.157-.398-.428-1.109-.428 1.109h.856zM21.224 20.147h-.583l-1.308-1.787v1.787h-.582v-2.628h.582l1.308 1.797v-1.797h.583v2.628zM24.553 19.518c-.121.198-.304.36-.528.463a1.897 1.897 0 0 1-.82.166h-1.038v-2.628h1.038c.284-.007.565.049.82.162.223.101.407.261.528.458.12.214.183.45.183.689s-.063.476-.183.689zm-.667-.063c.166-.175.258-.397.258-.627s-.092-.453-.258-.627a1.087 1.087 0 0 0-.73-.223h-.405v1.701h.405c.267.015.529-.065.73-.223zM17.569 2.9s7.529 2.559 7.369 6.262v6.263s-7.523-2.56-7.366-6.263L17.569 2.9zM31.645 13.958a11.041 11.041 0 0 1 4.783-1.587V10.41c-1.978.686-3.656 1.931-4.783 3.547z"/><path d="M30.791 14.549c1.164-2.11 3.181-3.738 5.638-4.549V4.351s-10.722 3.645-10.495 8.918v8.917s.478-.163 1.229-.469c0-.285 0-.573.034-.862.222-2.448 1.515-4.716 3.594-6.307z"/><path d="M29.771 17.862c.056-.618.182-1.23.375-1.826-1.295 1.373-2.079 3.077-2.242 4.872a7.806 7.806 0 0 0-.029.514 32.487 32.487 0 0 0 2.062-.978 8.336 8.336 0 0 1-.167-2.582zM30.198 17.894a7.95 7.95 0 0 0 .133 2.338c2.929-1.578 6.221-4.016 6.094-6.963v-.257c-2.093.211-4.051 1.034-5.573 2.344a8.063 8.063 0 0 0-.653 2.537z"/></symbol><symbol id="icon-Client-logo-6" viewBox="0 0 45 24"><path d="M22.941 11.761a1.27 1.27 0 0 1-.26-.854V9.669c0-.379.086-.668.258-.865s.468-.295.887-.295c.394 0 .674.084.839.252.18.214.268.476.248.74v.291h-.705v-.295a1.464 1.464 0 0 0-.02-.288.278.278 0 0 0-.101-.171.41.41 0 0 0-.255-.067.434.434 0 0 0-.268.07.338.338 0 0 0-.117.189c-.02.101-.029.203-.028.306v1.502c-.011.145.02.29.09.422.035.045.084.08.141.102s.12.03.182.024c.09.006.18-.018.25-.068a.304.304 0 0 0 .105-.183c.016-.1.024-.2.022-.301v-.305h.705v.278c.02.275-.066.549-.244.778-.162.184-.438.276-.843.276s-.712-.098-.886-.302zM25.876 11.774c-.178-.193-.267-.473-.267-.845V9.627c0-.368.089-.646.267-.835s.476-.283.893-.282c.414 0 .711.094.889.282s.268.467.268.835v1.302c0 .368-.09.65-.271.844s-.476.291-.886.291-.714-.098-.893-.29zm1.221-.312a.727.727 0 0 0 .085-.385V9.483a.708.708 0 0 0-.083-.378c-.036-.046-.086-.082-.144-.104s-.123-.03-.186-.022c-.063-.008-.128 0-.186.022s-.109.058-.145.104a.7.7 0 0 0-.085.378v1.602a.704.704 0 0 0 .085.385c.041.041.092.073.149.095a.506.506 0 0 0 .362 0 .442.442 0 0 0 .149-.095v-.008zM28.773 8.548h.759l.571 2.402.584-2.402h.738l.074 3.467h-.546l-.058-2.41-.563 2.41h-.438l-.584-2.419-.054 2.419h-.552l.069-3.467zM32.35 8.548h1.182c.681 0 1.021.328 1.021.985 0 .629-.358.943-1.075.942h-.403v1.541h-.73l.004-3.467zm1.01 1.482c.072.008.145.002.215-.017s.133-.051.187-.093a.558.558 0 0 0 .105-.392 1.081 1.081 0 0 0-.035-.315c-.01-.034-.029-.067-.054-.095s-.056-.052-.092-.07a.746.746 0 0 0-.325-.055h-.283v1.036h.283zM35.605 8.548h.784l.804 3.467h-.68l-.159-.8h-.699l-.163.8h-.69l.804-3.467zm.67 2.267-.273-1.455-.273 1.455h.546zM37.842 8.548h.511l.978 1.978V8.548h.606v3.467h-.486l-.983-2.065v2.065h-.626l.001-3.467zM41.354 10.694l-.813-2.14h.684l.496 1.375.465-1.375h.67l-.803 2.14v1.322h-.7v-1.322zM24.068 13.532v.181h-.595v1.409h-.25v-1.409h-.598v-.181h1.443zM25.934 15.122h-.193a.084.084 0 0 1-.054-.015.076.076 0 0 1-.032-.037l-.172-.378h-.826l-.172.378a.113.113 0 0 1-.026.043.085.085 0 0 1-.054.015h-.193l.73-1.59h.254l.738 1.584zm-1.208-.591h.689l-.292-.647a1.034 1.034 0 0 1-.054-.15l-.028.084-.026.067-.289.646zM27.192 14.966c.046.002.091.002.137 0a.92.92 0 0 0 .222-.048c.032-.011.064-.025.098-.039v-.358h-.292l-.021-.003a.052.052 0 0 1-.018-.01c-.005-.004-.009-.008-.011-.013s-.004-.01-.003-.016v-.122h.566v.609a1.062 1.062 0 0 1-.308.13 1.418 1.418 0 0 1-.395.043 1.113 1.113 0 0 1-.368-.059.905.905 0 0 1-.292-.166.774.774 0 0 1-.188-.252.786.786 0 0 1-.067-.33.737.737 0 0 1 .254-.584.875.875 0 0 1 .292-.165 1.2 1.2 0 0 1 .391-.059c.068 0 .136.005.203.014a.905.905 0 0 1 .447.186l-.07.098c-.005.009-.014.017-.024.022s-.021.008-.033.008a.087.087 0 0 1-.045-.013.855.855 0 0 1-.071-.038.85.85 0 0 0-.417-.092.866.866 0 0 0-.282.044.553.553 0 0 0-.35.324.745.745 0 0 0 0 .53.608.608 0 0 0 .359.326.851.851 0 0 0 .289.032zM29.518 14.94h.797v.181h-1.04v-1.59h.25l-.006 1.409zM31.143 15.122h-.25v-1.59h.25v1.59zM32.071 13.539a.11.11 0 0 1 .038.029l1.067 1.199a.542.542 0 0 1 0-.057v-1.185h.217v1.597h-.125a.123.123 0 0 1-.054-.009.13.13 0 0 1-.039-.03l-1.065-1.197v1.236h-.209v-1.59h.13c.014 0 .028.003.041.008zM35.23 13.532v.175h-.884v.525h.716v.169h-.716v.543h.884v.175h-1.141v-1.586h1.141zM9.084 3.711l11.079 2.715v9.512L9.084 13.225V3.711zM8.373 2.9v10.787l12.499 3.063V5.965L8.373 2.9z"/><path d="M15.072 21.757 2.571 18.691V7.906l12.501 3.065v10.787z"/><path d="M8.58 3.589 19.515 6.27l-4.65 4.014L3.929 7.602l4.652-4.013zM8.373 2.9 2.571 7.906l12.501 3.065 5.8-5.006L8.373 2.9zM15.775 21.15l5.097-4.399-5.097-1.25v5.649z"/></symbol></defs></svg>