<svg xmlns="http://www.w3.org/2000/svg" aria-hidden="true" style="position:absolute;width:0;height:0;overflow:hidden"><defs><symbol id="icon-facebook" viewBox="0 0 24 24"><path d="M15.997 3.985h2.191V.169C17.81.117 16.51 0 14.996 0c-3.159 0-5.323 1.987-5.323 5.639V9H6.187v4.266h3.486V24h4.274V13.267h3.345l.531-4.266h-3.877V6.062c.001-1.233.333-2.077 2.051-2.077z"/></symbol><symbol id="icon-instagram" viewBox="0 0 24 24"><path d="M23.976 7.056c-.056-1.275-.263-2.152-.558-2.912a5.864 5.864 0 0 0-1.388-2.128A5.912 5.912 0 0 0 19.906.633C19.142.338 18.27.131 16.994.075 15.709.014 15.301 0 12.043 0S8.377.014 7.097.07C5.822.126 4.945.333 4.186.628a5.868 5.868 0 0 0-2.129 1.388A5.912 5.912 0 0 0 .674 4.14C.379 4.904.172 5.776.116 7.051.055 8.336.041 8.744.041 12.002s.014 3.666.07 4.946c.056 1.275.263 2.152.558 2.912a5.916 5.916 0 0 0 1.388 2.128 5.912 5.912 0 0 0 2.124 1.383c.764.295 1.636.502 2.912.558 1.28.057 1.688.07 4.946.07s3.666-.014 4.946-.07c1.275-.056 2.152-.262 2.911-.558a6.142 6.142 0 0 0 3.512-3.511c.295-.764.502-1.636.558-2.912.056-1.28.07-1.688.07-4.946s-.005-3.666-.061-4.946zm-2.161 9.799c-.052 1.172-.249 1.805-.413 2.227a3.984 3.984 0 0 1-2.279 2.279c-.422.164-1.059.361-2.227.413-1.266.056-1.646.07-4.848.07s-3.587-.014-4.848-.07c-1.172-.051-1.805-.248-2.227-.413a3.692 3.692 0 0 1-1.378-.895 3.735 3.735 0 0 1-.896-1.378c-.164-.422-.361-1.06-.412-2.227-.056-1.266-.07-1.646-.07-4.848s.014-3.587.07-4.848c.051-1.172.248-1.805.412-2.227.192-.52.497-.994.9-1.378a3.72 3.72 0 0 1 1.378-.895c.422-.164 1.06-.361 2.227-.413 1.266-.056 1.646-.07 4.848-.07 3.207 0 3.587.014 4.848.07 1.172.052 1.805.249 2.227.413.52.192.994.497 1.378.895.398.389.703.858.895 1.378.164.422.361 1.059.413 2.227.056 1.266.07 1.646.07 4.848s-.014 3.577-.07 4.843z"/><path d="M12.045 5.837a6.166 6.166 0 0 0 0 12.33 6.166 6.166 0 0 0 0-12.33zm0 10.164a4 4 0 1 1 .002-8 4 4 0 0 1-.002 8zM19.893 5.593a1.439 1.439 0 1 1-2.877 0 1.439 1.439 0 0 1 2.877 0z"/></symbol><symbol id="icon-linkedin" viewBox="0 0 24 24"><path d="M23.994 24v-.001H24v-8.802c0-4.306-.927-7.623-5.961-7.623-2.42 0-4.044 1.328-4.707 2.587h-.07V7.976H8.489v16.023h4.97v-7.934c0-2.089.396-4.109 2.983-4.109 2.549 0 2.587 2.384 2.587 4.243V24h4.965zM.396 7.977h4.976V24H.396V7.977zM2.882 0C1.291 0 0 1.291 0 2.882s1.291 2.909 2.882 2.909c1.591 0 2.882-1.318 2.882-2.909A2.884 2.884 0 0 0 2.882 0z"/></symbol><symbol id="icon-twitter" viewBox="0 0 24 24"><path d="M24 4.558a10.24 10.24 0 0 1-2.835.777 4.893 4.893 0 0 0 2.165-2.72 9.845 9.845 0 0 1-3.12 1.191 4.919 4.919 0 0 0-8.511 3.364c0 .39.033.765.114 1.122-4.09-.2-7.71-2.16-10.142-5.147a4.962 4.962 0 0 0-.674 2.487c0 1.704.877 3.215 2.186 4.089A4.851 4.851 0 0 1 .96 9.115v.054a4.941 4.941 0 0 0 3.942 4.834c-.401.11-.837.162-1.29.162-.315 0-.633-.018-.931-.084.637 1.949 2.447 3.381 4.597 3.428a9.89 9.89 0 0 1-6.101 2.098c-.403 0-.79-.018-1.177-.067a13.856 13.856 0 0 0 7.548 2.208c9.054 0 14.004-7.5 14.004-14.001 0-.217-.008-.428-.018-.636A9.822 9.822 0 0 0 24 4.557z"/></symbol></defs></svg>