<svg aria-hidden="true" style="position: absolute; width: 0; height: 0; overflow: hidden;" version="1.1" xmlns="http://www.w3.org/2000/svg" xmlns:xlink="http://www.w3.org/1999/xlink">
<defs>
<symbol id="icon-email-black" viewBox="0 0 17 18">
<path d="M12.462 4.154h-8.308c-0.571 0-1.033 0.467-1.033 1.038l-0.005 6.231c0 0.571 0.467 1.038 1.038 1.038h8.308c0.571 0 1.038-0.467 1.038-1.038v-6.231c0-0.571-0.467-1.038-1.038-1.038zM12.254 6.361l-3.671 2.295c-0.166 0.104-0.384 0.104-0.55 0l-3.671-2.295c-0.13-0.083-0.208-0.223-0.208-0.374 0-0.348 0.379-0.556 0.675-0.374l3.479 2.176 3.479-2.176c0.296-0.182 0.675 0.026 0.675 0.374 0 0.151-0.078 0.291-0.208 0.374z"></path>
</symbol>
<symbol id="icon-person-black" viewBox="0 0 18 18">
<path d="M9 9c1.657 0 3-1.342 3-3s-1.342-3-3-3c-1.657 0-3 1.342-3 3s1.342 3 3 3zM9 10.5c-2.003 0-6 1.005-6 3v0.75c0 0.413 0.337 0.75 0.75 0.75h10.5c0.413 0 0.75-0.338 0.75-0.75v-0.75c0-1.995-3.997-3-6-3z"></path>
</symbol>
<symbol id="icon-phone-black" viewBox="0 0 14 18">
<path d="M11.045 10.399l-1.379-0.157c-0.331-0.038-0.657 0.076-0.89 0.309l-0.999 0.999c-1.536-0.782-2.795-2.035-3.577-3.577l1.004-1.004c0.233-0.233 0.347-0.559 0.309-0.89l-0.157-1.368c-0.065-0.548-0.526-0.961-1.080-0.961h-0.939c-0.613 0-1.124 0.51-1.086 1.124 0.288 4.635 3.995 8.337 8.624 8.624 0.613 0.038 1.124-0.472 1.124-1.085v-0.939c0.005-0.548-0.407-1.009-0.955-1.075z"></path>
</symbol>
</defs>
</svg>
